<svg class="main-svg" xmlns="http://www.w3.org/2000/svg" xmlns:xlink="http://www.w3.org/1999/xlink" width="576" height="432" style="" viewBox="0 0 576 432"><rect x="0" y="0" width="576" height="432" style="fill: rgb(255, 255, 255); fill-opacity: 1;"/><defs id="defs-2db702"><g class="clips"><clipPath id="clip2db702xyplot" class="plotclip"><rect width="488" height="334"/></clipPath><clipPath class="axesclip" id="clip2db702x"><rect x="64" y="0" width="488" height="432"/></clipPath><clipPath class="axesclip" id="clip2db702y"><rect x="0" y="46" width="576" height="334"/></clipPath><clipPath class="axesclip" id="clip2db702xy"><rect x="64" y="46" width="488" height="334"/></clipPath></g><g class="gradients"/><g class="patterns"/></defs><g class="bglayer"/><g class="layer-below"><g class="imagelayer"/><g class="shapelayer"/></g><g class="cartesianlayer"><g class="subplot xy"><g class="layer-subplot"><g class="shapelayer"/><g class="imagelayer"/></g><g class="minor-gridlayer"><g class="x"/><g class="y"/></g><g class="gridlayer"><g class="x"><path class="xgrid crisp" transform="translate(104.67,0)" d="M0,46v334" style="stroke: rgb(238, 241, 245); stroke-opacity: 1; stroke-width: 1px;"/><path class="xgrid crisp" transform="translate(186,0)" d="M0,46v334" style="stroke: rgb(238, 241, 245); stroke-opacity: 1; stroke-width: 1px;"/><path class="xgrid crisp" transform="translate(267.33000000000004,0)" d="M0,46v334" style="stroke: rgb(238, 241, 245); stroke-opacity: 1; stroke-width: 1px;"/><path class="xgrid crisp" transform="translate(348.67,0)" d="M0,46v334" style="stroke: rgb(238, 241, 245); stroke-opacity: 1; stroke-width: 1px;"/><path class="xgrid crisp" transform="translate(430,0)" d="M0,46v334" style="stroke: rgb(238, 241, 245); stroke-opacity: 1; stroke-width: 1px;"/><path class="xgrid crisp" transform="translate(511.33,0)" d="M0,46v334" style="stroke: rgb(238, 241, 245); stroke-opacity: 1; stroke-width: 1px;"/></g><g class="y"><path class="ygrid crisp" transform="translate(0,362.82)" d="M64,0h488" style="stroke: rgb(238, 241, 245); stroke-opacity: 1; stroke-width: 1px;"/><path class="ygrid crisp" transform="translate(0,300.8)" d="M64,0h488" style="stroke: rgb(238, 241, 245); stroke-opacity: 1; stroke-width: 1px;"/><path class="ygrid crisp" transform="translate(0,238.78)" d="M64,0h488" style="stroke: rgb(238, 241, 245); stroke-opacity: 1; stroke-width: 1px;"/><path class="ygrid crisp" transform="translate(0,176.76)" d="M64,0h488" style="stroke: rgb(238, 241, 245); stroke-opacity: 1; stroke-width: 1px;"/><path class="ygrid crisp" transform="translate(0,114.74)" d="M64,0h488" style="stroke: rgb(238, 241, 245); stroke-opacity: 1; stroke-width: 1px;"/><path class="ygrid crisp" transform="translate(0,52.71)" d="M64,0h488" style="stroke: rgb(238, 241, 245); stroke-opacity: 1; stroke-width: 1px;"/></g></g><g class="zerolinelayer"/><g class="layer-between"><g class="shapelayer"/><g class="imagelayer"/></g><path class="xlines-below"/><path class="ylines-below"/><g class="overlines-below"/><g class="xaxislayer-below"/><g class="yaxislayer-below"/><g class="overaxes-below"/><g class="overplot"><g class="xy" transform="translate(64,46)" clip-path="url(#clip2db702xyplot)"><g class="boxlayer mlayer"><g class="trace boxes" style="opacity: 1;"><path class="box" d="M20.74,80.59H60.59M20.74,119.97H60.59V56.75H20.74ZM40.67,119.97V210.41M40.67,56.75V16.7M30.7,210.41H50.63M30.7,16.7H50.63" style="vector-effect: none; stroke-width: 2px; stroke: rgb(47, 109, 176); stroke-opacity: 1; fill: rgb(47, 109, 176); fill-opacity: 0.5;"/><g class="points"/></g><g class="trace boxes" style="opacity: 1;"><path class="box" d="M102.07,233.23H141.93M102.07,274.08H141.93V155.63H102.07ZM122,274.08V317.3M122,155.63V56.5M112.04,317.3H131.96M112.04,56.5H131.96" style="vector-effect: none; stroke-width: 2px; stroke: rgb(224, 138, 43); stroke-opacity: 1; fill: rgb(224, 138, 43); fill-opacity: 0.5;"/><g class="points"/></g><g class="trace boxes" style="opacity: 1;"><path class="box" d="M183.41,238.2H223.26M183.41,266.46H223.26V192.94H183.41ZM203.33,266.46V295.63M203.33,192.94V97.88M193.37,295.63H213.3M193.37,97.88H213.3" style="vector-effect: none; stroke-width: 2px; stroke: rgb(63, 155, 107); stroke-opacity: 1; fill: rgb(63, 155, 107); fill-opacity: 0.5;"/><g class="points"/></g><g class="trace boxes" style="opacity: 1;"><path class="box" d="M264.74,244.39H304.59M264.74,269.89H304.59V218.64H264.74ZM284.67,269.89V289.84M284.67,218.64V193.58M274.7,289.84H294.63M274.7,193.58H294.63" style="vector-effect: none; stroke-width: 2px; stroke: rgb(192, 57, 43); stroke-opacity: 1; fill: rgb(192, 57, 43); fill-opacity: 0.5;"/><g class="points"><path class="point" transform="translate(284.67,138.28)" d="M3,0A3,3 0 1,1 0,-3A3,3 0 0,1 3,0Z" style="opacity: 1; stroke-width: 0px; fill: rgb(192, 57, 43); fill-opacity: 1;"/></g></g><g class="trace boxes" style="opacity: 1;"><path class="box" d="M346.07,252.22H385.93M346.07,273.47H385.93V219.21H346.07ZM366,273.47V292.15M366,219.21V167.94M356.04,292.15H375.96M356.04,167.94H375.96" style="vector-effect: none; stroke-width: 2px; stroke: rgb(125, 91, 166); stroke-opacity: 1; fill: rgb(125, 91, 166); fill-opacity: 0.5;"/><g class="points"/></g><g class="trace boxes" style="opacity: 1;"><path class="box" d="M427.41,259.48H467.26M427.41,269.8H467.26V235.29H427.41ZM447.33,269.8V282.85M447.33,235.29V204.4M437.37,282.85H457.3M437.37,204.4H457.3" style="vector-effect: none; stroke-width: 2px; stroke: rgb(31, 154, 166); stroke-opacity: 1; fill: rgb(31, 154, 166); fill-opacity: 0.5;"/><g class="points"/></g></g></g></g><g class="zerolinelayer-above"/><path class="xlines-above crisp" d="M63,380.5H552" style="fill: none; stroke-width: 1px; stroke: rgb(196, 204, 212); stroke-opacity: 1;"/><path class="ylines-above crisp" d="M63.5,46V380" style="fill: none; stroke-width: 1px; stroke: rgb(196, 204, 212); stroke-opacity: 1;"/><g class="overlines-above"/><g class="xaxislayer-above"><path class="xtick ticks crisp" d="M0,381v4" transform="translate(104.67,0)" style="stroke: rgb(196, 204, 212); stroke-opacity: 1; stroke-width: 1px;"/><path class="xtick ticks crisp" d="M0,381v4" transform="translate(186,0)" style="stroke: rgb(196, 204, 212); stroke-opacity: 1; stroke-width: 1px;"/><path class="xtick ticks crisp" d="M0,381v4" transform="translate(267.33000000000004,0)" style="stroke: rgb(196, 204, 212); stroke-opacity: 1; stroke-width: 1px;"/><path class="xtick ticks crisp" d="M0,381v4" transform="translate(348.67,0)" style="stroke: rgb(196, 204, 212); stroke-opacity: 1; stroke-width: 1px;"/><path class="xtick ticks crisp" d="M0,381v4" transform="translate(430,0)" style="stroke: rgb(196, 204, 212); stroke-opacity: 1; stroke-width: 1px;"/><path class="xtick ticks crisp" d="M0,381v4" transform="translate(511.33,0)" style="stroke: rgb(196, 204, 212); stroke-opacity: 1; stroke-width: 1px;"/><g class="xtick"><text text-anchor="start" x="0" y="398.2" transform="translate(104.67,0) rotate(29.999999999999996,0,392.7)" style="font-family: Inter, 'Helvetica Neue', Helvetica, Arial, sans-serif; font-size: 11px; fill: rgb(51, 64, 77); fill-opacity: 1; white-space: pre;">Control</text></g><g class="xtick"><text text-anchor="start" x="0" y="398.2" transform="translate(186,0) rotate(29.999999999999996,0,392.7)" style="font-family: Inter, 'Helvetica Neue', Helvetica, Arial, sans-serif; font-size: 11px; fill: rgb(51, 64, 77); fill-opacity: 1; white-space: pre;">AAV8-RK-PDE6B-3UTR</text></g><g class="xtick"><text text-anchor="start" x="0" y="398.2" transform="translate(267.33000000000004,0) rotate(29.999999999999996,0,392.7)" style="font-family: Inter, 'Helvetica Neue', Helvetica, Arial, sans-serif; font-size: 11px; fill: rgb(51, 64, 77); fill-opacity: 1; white-space: pre;">AAV8-RK-PDE6B</text></g><g class="xtick"><text text-anchor="start" x="0" y="398.2" transform="translate(348.67,0) rotate(29.999999999999996,0,392.7)" style="font-family: Inter, 'Helvetica Neue', Helvetica, Arial, sans-serif; font-size: 11px; fill: rgb(51, 64, 77); fill-opacity: 1; white-space: pre;">AAV8-RK-GFP-polyA-stuffer</text></g><g class="xtick"><text text-anchor="start" x="0" y="398.2" transform="translate(430,0) rotate(29.999999999999996,0,392.7)" style="font-family: Inter, 'Helvetica Neue', Helvetica, Arial, sans-serif; font-size: 11px; fill: rgb(51, 64, 77); fill-opacity: 1; white-space: pre;">AAV8-CMV-GFP</text></g><g class="xtick"><text text-anchor="start" x="0" y="398.2" transform="translate(511.33,0) rotate(29.999999999999996,0,392.7)" style="font-family: Inter, 'Helvetica Neue', Helvetica, Arial, sans-serif; font-size: 11px; fill: rgb(51, 64, 77); fill-opacity: 1; white-space: pre;">Untreated</text></g></g><g class="yaxislayer-above"><path class="ytick ticks crisp" d="M63,0h-4" transform="translate(0,362.82)" style="stroke: rgb(196, 204, 212); stroke-opacity: 1; stroke-width: 1px;"/><path class="ytick ticks crisp" d="M63,0h-4" transform="translate(0,300.8)" style="stroke: rgb(196, 204, 212); stroke-opacity: 1; stroke-width: 1px;"/><path class="ytick ticks crisp" d="M63,0h-4" transform="translate(0,238.78)" style="stroke: rgb(196, 204, 212); stroke-opacity: 1; stroke-width: 1px;"/><path class="ytick ticks crisp" d="M63,0h-4" transform="translate(0,176.76)" style="stroke: rgb(196, 204, 212); stroke-opacity: 1; stroke-width: 1px;"/><path class="ytick ticks crisp" d="M63,0h-4" transform="translate(0,114.74)" style="stroke: rgb(196, 204, 212); stroke-opacity: 1; stroke-width: 1px;"/><path class="ytick ticks crisp" d="M63,0h-4" transform="translate(0,52.71)" style="stroke: rgb(196, 204, 212); stroke-opacity: 1; stroke-width: 1px;"/><g class="ytick"><text text-anchor="end" x="56.8" y="3.8499999999999996" transform="translate(0,362.82)" style="font-family: Inter, 'Helvetica Neue', Helvetica, Arial, sans-serif; font-size: 11px; fill: rgb(51, 64, 77); fill-opacity: 1; white-space: pre;">0</text></g><g class="ytick"><text text-anchor="end" x="56.8" y="3.8499999999999996" style="font-family: Inter, 'Helvetica Neue', Helvetica, Arial, sans-serif; font-size: 11px; fill: rgb(51, 64, 77); fill-opacity: 1; white-space: pre;" transform="translate(0,300.8)">50</text></g><g class="ytick"><text text-anchor="end" x="56.8" y="3.8499999999999996" style="font-family: Inter, 'Helvetica Neue', Helvetica, Arial, sans-serif; font-size: 11px; fill: rgb(51, 64, 77); fill-opacity: 1; white-space: pre;" transform="translate(0,238.78)">100</text></g><g class="ytick"><text text-anchor="end" x="56.8" y="3.8499999999999996" style="font-family: Inter, 'Helvetica Neue', Helvetica, Arial, sans-serif; font-size: 11px; fill: rgb(51, 64, 77); fill-opacity: 1; white-space: pre;" transform="translate(0,176.76)">150</text></g><g class="ytick"><text text-anchor="end" x="56.8" y="3.8499999999999996" style="font-family: Inter, 'Helvetica Neue', Helvetica, Arial, sans-serif; font-size: 11px; fill: rgb(51, 64, 77); fill-opacity: 1; white-space: pre;" transform="translate(0,114.74)">200</text></g><g class="ytick"><text text-anchor="end" x="56.8" y="3.8499999999999996" style="font-family: Inter, 'Helvetica Neue', Helvetica, Arial, sans-serif; font-size: 11px; fill: rgb(51, 64, 77); fill-opacity: 1; white-space: pre;" transform="translate(0,52.71)">250</text></g></g><g class="overaxes-above"/></g></g><g class="polarlayer"/><g class="smithlayer"/><g class="ternarylayer"/><g class="geolayer"/><g class="funnelarealayer"/><g class="pielayer"/><g class="iciclelayer"/><g class="treemaplayer"/><g class="sunburstlayer"/><g class="glimages"/><defs id="topdefs-2db702"><g class="clips"/></defs><g class="layer-above"><g class="imagelayer"/><g class="shapelayer"/></g><g class="infolayer"><g class="g-gtitle"><text class="gtitle" x="5.76" y="23" text-anchor="start" dy="0em" style="opacity: 1; font-family: Inter, 'Helvetica Neue', Helvetica, Arial, sans-serif; font-size: 16px; fill: rgb(31, 42, 55); fill-opacity: 1; white-space: pre;">b_wave_uv by condition</text></g><g class="g-xtitle"><text class="xtitle" x="308" y="429" text-anchor="middle" style="opacity: 1; font-family: Inter, 'Helvetica Neue', Helvetica, Arial, sans-serif; font-size: 13px; fill: rgb(31, 42, 55); fill-opacity: 1; white-space: pre;">condition</text></g><g class="g-ytitle"><text class="ytitle" transform="rotate(-90,28,213)" x="28" y="213" text-anchor="middle" style="opacity: 1; font-family: Inter, 'Helvetica Neue', Helvetica, Arial, sans-serif; font-size: 13px; fill: rgb(31, 42, 55); fill-opacity: 1; white-space: pre;">b_wave_uv</text></g></g></svg>